<svg width="24" height="24" viewBox="0 0 24 24" fill="none" xmlns="http://www.w3.org/2000/svg">
<path d="M19.4325 4.44937V3.75C19.4325 3.55109 19.3535 3.36032 19.2128 3.21967C19.0722 3.07902 18.8814 3 18.6825 3H5.31747C5.11856 3 4.9278 3.07902 4.78714 3.21967C4.64649 3.36032 4.56747 3.55109 4.56747 3.75V4.44937C4.49904 4.98234 4.11513 8.70281 6.29857 11.2317C7.46435 12.5817 9.12794 13.3341 11.25 13.4752V19.5H7.49997C7.30106 19.5 7.1103 19.579 6.96964 19.7197C6.82899 19.8603 6.74997 20.0511 6.74997 20.25C6.74997 20.4489 6.82899 20.6397 6.96964 20.7803C7.1103 20.921 7.30106 21 7.49997 21H16.5C16.6989 21 16.8897 20.921 17.0303 20.7803C17.171 20.6397 17.25 20.4489 17.25 20.25C17.25 20.0511 17.171 19.8603 17.0303 19.7197C16.8897 19.579 16.6989 19.5 16.5 19.5H12.75V13.4752C14.872 13.3345 16.5356 12.5817 17.7014 11.2317C19.8848 8.70281 19.5 4.98234 19.4325 4.44937ZM6.05904 4.60922C6.06466 4.57308 6.06748 4.53657 6.06747 4.5H17.9325C17.9325 4.53657 17.9353 4.57308 17.9409 4.60922C18.0219 5.32052 18.0219 6.0387 17.9409 6.75H6.06185C5.9809 6.03875 5.97996 5.32067 6.05904 4.60922V4.60922Z" fill="#FF1352" fill-opacity="0.5"/>
</svg>
