<svg width="40" height="40" viewBox="0 0 40 40" fill="none" xmlns="http://www.w3.org/2000/svg">
<path d="M25.9876 5.56946C24.4673 3.97443 22.3438 3.09607 20.0001 3.09607C17.6438 3.09607 15.5134 3.96912 14.0001 5.55427C12.4704 7.15689 11.7251 9.33496 11.9001 11.6869C12.247 16.3269 15.8805 20.1016 20.0001 20.1016C24.1196 20.1016 27.747 16.3277 28.0993 11.6884C28.2767 9.35773 27.5267 7.18422 25.9876 5.56946Z" fill="#0A0C3E"/>
<path d="M33.75 37.107H6.24996C5.89001 37.1116 5.53354 37.0381 5.20649 36.8919C4.87944 36.7457 4.59004 36.5306 4.35933 36.262C3.85152 35.6722 3.64683 34.8667 3.7984 34.0521C4.45777 30.4976 6.51558 27.5118 9.74996 25.4157C12.6234 23.555 16.2632 22.5309 20 22.5309C23.7367 22.5309 27.3765 23.5558 30.25 25.4157C33.4843 27.5111 35.5421 30.4969 36.2015 34.0513C36.3531 34.8659 36.1484 35.6714 35.6406 36.2613C35.4099 36.53 35.1206 36.7453 34.7935 36.8916C34.4665 37.0379 34.11 37.1115 33.75 37.107V37.107Z" fill="#0A0C3E"/>
</svg>
