<svg width="100" height="100" viewBox="0 0 100 100" fill="none" xmlns="http://www.w3.org/2000/svg">
<path d="M81.6092 87.5002C81.1972 87.5002 80.7892 87.4188 80.4087 87.2606C80.0283 87.1024 79.6829 86.8705 79.3924 86.5783L7.93934 14.7033C7.35503 14.1154 7.02821 13.3194 7.03078 12.4905C7.03334 11.6616 7.36508 10.8677 7.95301 10.2834C8.54094 9.69909 9.3369 9.37227 10.1658 9.37483C10.9947 9.3774 11.7886 9.70913 12.3729 10.2971L83.824 82.1721C84.2591 82.6097 84.5549 83.1665 84.674 83.772C84.7931 84.3776 84.7303 85.0048 84.4934 85.5747C84.2565 86.1446 83.8562 86.6316 83.3429 86.9742C82.8296 87.3169 82.2263 87.4999 81.6092 87.5002Z" fill="#FF1352"/>
<path d="M71.2734 15.6249C62.6621 15.6249 56.7011 20.4726 53.2285 24.5117C53.1185 24.6383 52.9826 24.7399 52.8299 24.8095C52.6773 24.8791 52.5115 24.9151 52.3437 24.9151C52.176 24.9151 52.0102 24.8791 51.8575 24.8095C51.7049 24.7399 51.569 24.6383 51.459 24.5117C47.9863 20.4726 42.0234 15.6249 33.4141 15.6249C31.3634 15.6238 29.3236 15.9226 27.3594 16.5117L79.9238 69.3828C80.5097 68.7109 81.0371 68.0859 81.5136 67.5078C89.3261 57.9863 93.0663 48.2128 92.9609 37.6249C92.8456 25.4941 83.1132 15.6249 71.2734 15.6249Z" fill="#FF1352"/>
<path d="M13.4768 29.1293C12.3448 31.8196 11.7477 34.7047 11.719 37.6234C11.6135 48.2113 15.3576 57.9847 23.1662 67.5062C26.8323 71.973 33.4788 79.1176 48.8284 89.5375C49.8639 90.2459 51.0893 90.6249 52.344 90.6249C53.5987 90.6249 54.8241 90.2459 55.8596 89.5375C59.8342 86.8383 63.2229 84.3617 66.1292 82.0922L13.4768 29.1293Z" fill="#FF1352"/>
</svg>
