<svg width="15" height="15" viewBox="0 0 15 15" fill="none" xmlns="http://www.w3.org/2000/svg">
<path d="M7.5 6.5625C8.01777 6.5625 8.4375 6.14277 8.4375 5.625C8.4375 5.10723 8.01777 4.6875 7.5 4.6875C6.98223 4.6875 6.5625 5.10723 6.5625 5.625C6.5625 6.14277 6.98223 6.5625 7.5 6.5625Z" fill="white"/>
<path d="M7.5 0.9375C4.91543 0.9375 2.8125 2.94873 2.8125 5.41992C2.8125 6.59678 3.34893 8.16182 4.40684 10.0717C5.25645 11.6051 6.23936 12.9917 6.75059 13.6816C6.83697 13.7995 6.94992 13.8954 7.08028 13.9615C7.21063 14.0276 7.35473 14.062 7.50088 14.062C7.64703 14.062 7.79112 14.0276 7.92148 13.9615C8.05184 13.8954 8.16479 13.7995 8.25117 13.6816C8.76152 12.9917 9.74531 11.6051 10.5949 10.0717C11.6511 8.1624 12.1875 6.59736 12.1875 5.41992C12.1875 2.94873 10.0846 0.9375 7.5 0.9375ZM7.5 7.5C7.12916 7.5 6.76665 7.39003 6.45831 7.18401C6.14996 6.97798 5.90964 6.68514 5.76773 6.34253C5.62581 5.99992 5.58868 5.62292 5.66103 5.25921C5.73337 4.89549 5.91195 4.5614 6.17417 4.29917C6.4364 4.03695 6.77049 3.85837 7.13421 3.78603C7.49792 3.71368 7.87492 3.75081 8.21753 3.89273C8.56014 4.03464 8.85298 4.27496 9.05901 4.58331C9.26503 4.89165 9.375 5.25416 9.375 5.625C9.37446 6.12211 9.17674 6.59871 8.82523 6.95023C8.47371 7.30174 7.99711 7.49946 7.5 7.5Z" fill="white"/>
</svg>
