<svg width="15" height="15" viewBox="0 0 15 15" fill="none" xmlns="http://www.w3.org/2000/svg">
<path d="M14.0625 3.75001C14.0625 3.25273 13.865 2.77581 13.5133 2.42418C13.1617 2.07255 12.6848 1.875 12.1875 1.875H11.7188V1.41944C11.7188 1.16719 11.5248 0.950687 11.2726 0.938089C11.2092 0.935035 11.1458 0.944881 11.0864 0.96703C11.0269 0.989179 10.9726 1.02317 10.9266 1.06694C10.8807 1.11072 10.8441 1.16336 10.8191 1.22168C10.7941 1.28001 10.7813 1.3428 10.7812 1.40625V1.875H4.21875V1.41944C4.21875 1.16719 4.0248 0.950687 3.77256 0.938089C3.70918 0.935035 3.64584 0.944881 3.58638 0.96703C3.52692 0.989179 3.47257 1.02317 3.42663 1.06694C3.3807 1.11072 3.34412 1.16336 3.31913 1.22168C3.29414 1.28001 3.28126 1.3428 3.28125 1.40625V1.875H2.8125C2.31522 1.875 1.83831 2.07255 1.48667 2.42418C1.13504 2.77581 0.9375 3.25273 0.9375 3.75001V4.10157C0.9375 4.13265 0.949847 4.16246 0.971823 4.18443C0.9938 4.20641 1.02361 4.21876 1.05469 4.21876H13.9453C13.9764 4.21876 14.0062 4.20641 14.0282 4.18443C14.0502 4.16246 14.0625 4.13265 14.0625 4.10157V3.75001Z" fill="white"/>
<path d="M0.9375 12.1875C0.9375 12.6848 1.13504 13.1617 1.48667 13.5133C1.83831 13.865 2.31522 14.0625 2.8125 14.0625H12.1875C12.6848 14.0625 13.1617 13.865 13.5133 13.5133C13.865 13.1617 14.0625 12.6848 14.0625 12.1875V5.24414C14.0625 5.22083 14.0532 5.19848 14.0368 5.18199C14.0203 5.16551 13.9979 5.15625 13.9746 5.15625H1.02539C1.00208 5.15625 0.979725 5.16551 0.963243 5.18199C0.94676 5.19848 0.9375 5.22083 0.9375 5.24414V12.1875ZM11.0156 6.09375C11.1547 6.09375 11.2906 6.13499 11.4063 6.21225C11.5219 6.28951 11.612 6.39932 11.6652 6.5278C11.7184 6.65628 11.7324 6.79766 11.7052 6.93405C11.6781 7.07044 11.6111 7.19573 11.5128 7.29406C11.4145 7.39239 11.2892 7.45936 11.1528 7.48649C11.0164 7.51362 10.875 7.4997 10.7466 7.44648C10.6181 7.39326 10.5083 7.30314 10.431 7.18751C10.3537 7.07188 10.3125 6.93594 10.3125 6.79688C10.3125 6.61039 10.3866 6.43155 10.5184 6.29969C10.6503 6.16783 10.8291 6.09375 11.0156 6.09375ZM11.0156 8.4375C11.1547 8.4375 11.2906 8.47874 11.4063 8.556C11.5219 8.63326 11.612 8.74307 11.6652 8.87155C11.7184 9.00003 11.7324 9.1414 11.7052 9.2778C11.6781 9.41419 11.6111 9.53948 11.5128 9.63781C11.4145 9.73614 11.2892 9.80311 11.1528 9.83024C11.0164 9.85737 10.875 9.84345 10.7466 9.79023C10.6181 9.73701 10.5083 9.64689 10.431 9.53126C10.3537 9.41563 10.3125 9.27969 10.3125 9.14062C10.3125 8.95414 10.3866 8.7753 10.5184 8.64344C10.6503 8.51158 10.8291 8.4375 11.0156 8.4375ZM8.67188 6.09375C8.81094 6.09375 8.94688 6.13499 9.06251 6.21225C9.17814 6.28951 9.26826 6.39932 9.32148 6.5278C9.37469 6.65628 9.38862 6.79766 9.36149 6.93405C9.33436 7.07044 9.26739 7.19573 9.16906 7.29406C9.07073 7.39239 8.94544 7.45936 8.80905 7.48649C8.67265 7.51362 8.53128 7.4997 8.4028 7.44648C8.27432 7.39326 8.16451 7.30314 8.08725 7.18751C8.00999 7.07188 7.96875 6.93594 7.96875 6.79688C7.96875 6.61039 8.04283 6.43155 8.17469 6.29969C8.30655 6.16783 8.48539 6.09375 8.67188 6.09375ZM8.67188 8.4375C8.81094 8.4375 8.94688 8.47874 9.06251 8.556C9.17814 8.63326 9.26826 8.74307 9.32148 8.87155C9.37469 9.00003 9.38862 9.1414 9.36149 9.2778C9.33436 9.41419 9.26739 9.53948 9.16906 9.63781C9.07073 9.73614 8.94544 9.80311 8.80905 9.83024C8.67265 9.85737 8.53128 9.84345 8.4028 9.79023C8.27432 9.73701 8.16451 9.64689 8.08725 9.53126C8.00999 9.41563 7.96875 9.27969 7.96875 9.14062C7.96875 8.95414 8.04283 8.7753 8.17469 8.64344C8.30655 8.51158 8.48539 8.4375 8.67188 8.4375ZM8.67188 10.7812C8.81094 10.7812 8.94688 10.8225 9.06251 10.8997C9.17814 10.977 9.26826 11.0868 9.32148 11.2153C9.37469 11.3438 9.38862 11.4852 9.36149 11.6215C9.33436 11.7579 9.26739 11.8832 9.16906 11.9816C9.07073 12.0799 8.94544 12.1469 8.80905 12.174C8.67265 12.2011 8.53128 12.1872 8.4028 12.134C8.27432 12.0808 8.16451 11.9906 8.08725 11.875C8.00999 11.7594 7.96875 11.6234 7.96875 11.4844C7.96875 11.2979 8.04283 11.1191 8.17469 10.9872C8.30655 10.8553 8.48539 10.7812 8.67188 10.7812ZM6.32812 8.4375C6.46719 8.4375 6.60313 8.47874 6.71876 8.556C6.83439 8.63326 6.92451 8.74307 6.97773 8.87155C7.03095 9.00003 7.04487 9.1414 7.01774 9.2778C6.99061 9.41419 6.92364 9.53948 6.82531 9.63781C6.72698 9.73614 6.60169 9.80311 6.4653 9.83024C6.32891 9.85737 6.18753 9.84345 6.05905 9.79023C5.93057 9.73701 5.82076 9.64689 5.7435 9.53126C5.66624 9.41563 5.625 9.27969 5.625 9.14062C5.625 8.95414 5.69908 8.7753 5.83094 8.64344C5.9628 8.51158 6.14164 8.4375 6.32812 8.4375ZM6.32812 10.7812C6.46719 10.7812 6.60313 10.8225 6.71876 10.8997C6.83439 10.977 6.92451 11.0868 6.97773 11.2153C7.03095 11.3438 7.04487 11.4852 7.01774 11.6215C6.99061 11.7579 6.92364 11.8832 6.82531 11.9816C6.72698 12.0799 6.60169 12.1469 6.4653 12.174C6.32891 12.2011 6.18753 12.1872 6.05905 12.134C5.93057 12.0808 5.82076 11.9906 5.7435 11.875C5.66624 11.7594 5.625 11.6234 5.625 11.4844C5.625 11.2979 5.69908 11.1191 5.83094 10.9872C5.9628 10.8553 6.14164 10.7812 6.32812 10.7812ZM3.98438 8.4375C4.12344 8.4375 4.25938 8.47874 4.37501 8.556C4.49064 8.63326 4.58076 8.74307 4.63398 8.87155C4.6872 9.00003 4.70112 9.1414 4.67399 9.2778C4.64686 9.41419 4.57989 9.53948 4.48156 9.63781C4.38323 9.73614 4.25794 9.80311 4.12155 9.83024C3.98516 9.85737 3.84378 9.84345 3.7153 9.79023C3.58682 9.73701 3.47701 9.64689 3.39975 9.53126C3.32249 9.41563 3.28125 9.27969 3.28125 9.14062C3.28125 8.95414 3.35533 8.7753 3.48719 8.64344C3.61905 8.51158 3.79789 8.4375 3.98438 8.4375ZM3.98438 10.7812C4.12344 10.7812 4.25938 10.8225 4.37501 10.8997C4.49064 10.977 4.58076 11.0868 4.63398 11.2153C4.6872 11.3438 4.70112 11.4852 4.67399 11.6215C4.64686 11.7579 4.57989 11.8832 4.48156 11.9816C4.38323 12.0799 4.25794 12.1469 4.12155 12.174C3.98516 12.2011 3.84378 12.1872 3.7153 12.134C3.58682 12.0808 3.47701 11.9906 3.39975 11.875C3.32249 11.7594 3.28125 11.6234 3.28125 11.4844C3.28125 11.2979 3.35533 11.1191 3.48719 10.9872C3.61905 10.8553 3.79789 10.7812 3.98438 10.7812Z" fill="white"/>
</svg>
