<svg width="35" height="35" viewBox="0 0 35 35" fill="none" xmlns="http://www.w3.org/2000/svg">
<path d="M22.9688 25.7031V18.5938H13.0566C12.7666 18.5938 12.4884 18.4785 12.2832 18.2734C12.0781 18.0683 11.9629 17.7901 11.9629 17.5C11.9629 17.2099 12.0781 16.9317 12.2832 16.7266C12.4884 16.5215 12.7666 16.4062 13.0566 16.4062H22.9688V9.29688C22.9677 8.28193 22.564 7.30886 21.8463 6.59118C21.1286 5.8735 20.1556 5.46984 19.1406 5.46875H6.01562C5.00068 5.46984 4.02761 5.8735 3.30993 6.59118C2.59225 7.30886 2.18859 8.28193 2.1875 9.29688V25.7031C2.18859 26.7181 2.59225 27.6911 3.30993 28.4088C4.02761 29.1265 5.00068 29.5302 6.01562 29.5312H19.1406C20.1556 29.5302 21.1286 29.1265 21.8463 28.4088C22.564 27.6911 22.9677 26.7181 22.9688 25.7031Z" fill="#FF1352"/>
<path d="M29.078 18.5932L25.4769 22.1951C25.2804 22.4019 25.1725 22.6772 25.1761 22.9624C25.1798 23.2476 25.2947 23.5201 25.4964 23.7218C25.6981 23.9235 25.9706 24.0384 26.2558 24.0421C26.541 24.0457 26.8164 23.9378 27.0231 23.7414L32.4919 18.2726C32.6969 18.0675 32.812 17.7894 32.812 17.4995C32.812 17.2095 32.6969 16.9314 32.4919 16.7263L27.0231 11.2576C26.8164 11.0611 26.541 10.9532 26.2558 10.9569C25.9706 10.9605 25.6981 11.0755 25.4964 11.2771C25.2947 11.4788 25.1798 11.7513 25.1761 12.0365C25.1725 12.3217 25.2804 12.5971 25.4769 12.8039L29.078 16.4057H22.9688V18.5932H29.078Z" fill="#FF1352"/>
</svg>
