<svg width="335" height="224" viewBox="0 0 335 224" fill="none" xmlns="http://www.w3.org/2000/svg">
<rect width="335" height="224" rx="10" fill="#232451" fill-opacity="0.38"/>
<g clip-path="url(#clip0_817_10697)">
<path d="M193.76 177.082L190.737 177.082L189.298 165.42L193.761 165.42L193.76 177.082Z" fill="#9E616A"/>
<path d="M194.531 180.013L184.783 180.012V179.889C184.783 178.883 185.183 177.918 185.894 177.206C186.606 176.495 187.571 176.095 188.577 176.095H188.577L194.531 176.095L194.531 180.013Z" fill="#2F2E41"/>
<path d="M182.909 177.082L179.886 177.082L178.448 165.42L182.91 165.42L182.909 177.082Z" fill="#9E616A"/>
<path d="M183.68 180.013L173.932 180.012V179.889C173.932 178.883 174.331 177.918 175.043 177.206C175.755 176.495 176.72 176.095 177.726 176.095H177.726L183.68 176.095L183.68 180.013Z" fill="#2F2E41"/>
<path d="M147.697 95.3669C147.939 95.6992 148.25 95.9745 148.61 96.1734C148.969 96.3723 149.368 96.4899 149.778 96.518C150.188 96.5461 150.599 96.4839 150.982 96.336C151.366 96.188 151.712 95.9578 151.996 95.6615L157.979 97.9977L160.285 94.7085L151.791 91.5281C151.261 91.0828 150.587 90.8471 149.895 90.8658C149.204 90.8844 148.543 91.1561 148.039 91.6293C147.534 92.1025 147.221 92.7443 147.158 93.4332C147.095 94.1221 147.287 94.8101 147.697 95.3669Z" fill="#9E616A"/>
<path d="M182.871 115.296L174.995 117.865L177.626 173.647L183.705 173.797L186.816 134.459L187.522 173.642L195.039 174.056L197.809 115.296H182.871Z" fill="#0A0C3E"/>
<path d="M177.557 82.4133L197.772 78.021L200.02 95.4278L198.148 103.745L198.898 116.385C198.898 116.385 182.913 124.34 174.995 117.865C174.995 117.865 181.359 101.148 177.67 93.3218L177.557 82.4133Z" fill="#545796"/>
<path d="M181.058 84.8755L177.556 82.4134C177.556 82.4134 177.35 82.127 174.432 85.5377C171.515 88.9485 165.596 94.3739 165.596 94.3739L155.732 90.6747L153.935 97.3146L165.399 102.657L181.63 91.8175L181.058 84.8755Z" fill="#545796"/>
<path d="M198.902 122.91C199.273 122.734 199.602 122.479 199.864 122.163C200.126 121.847 200.316 121.477 200.42 121.079C200.524 120.682 200.54 120.267 200.466 119.862C200.392 119.458 200.23 119.075 199.992 118.74L203.402 113.298L200.6 110.419L195.893 118.173C195.356 118.61 194.999 119.228 194.889 119.911C194.778 120.594 194.922 121.294 195.293 121.878C195.664 122.461 196.236 122.889 196.901 123.079C197.566 123.269 198.278 123.209 198.902 122.91Z" fill="#9E616A"/>
<path d="M194.619 81.4501L197.772 78.021C197.772 78.021 201.285 76.7976 204.156 83.1196C207.026 89.4417 210.232 102.265 210.232 102.265L202.737 116.704L196.915 114.102L202.737 102.163L196.576 93.3218L194.619 81.4501Z" fill="#545796"/>
<path d="M189.273 76.5933C192.453 74.855 193.621 70.8679 191.883 67.6879C190.145 64.5079 186.158 63.3392 182.978 65.0776C179.798 66.8159 178.629 70.803 180.367 73.983C182.106 77.163 186.093 78.3317 189.273 76.5933Z" fill="#9E616A"/>
<path d="M191.658 64.9675C191.348 63.6644 190.262 62.636 189.012 62.1537C187.762 61.6714 186.371 61.676 185.05 61.9004C182.858 62.2729 180.811 63.2182 178.794 64.154L180.349 64.8977L178.204 65.0208L179.861 65.878C179.419 66.2149 179.082 66.6717 178.891 67.1942C178.7 67.7167 178.663 68.283 178.784 68.8259C178.87 69.1812 179.098 69.5727 179.463 69.5849C179.904 69.5998 180.135 69.0853 180.444 68.7698C180.855 68.3499 181.504 68.2568 182.086 68.3359C182.669 68.415 183.221 68.639 183.795 68.7628C184.522 68.9142 185.272 68.9058 185.995 68.7384C186.718 68.5709 187.395 68.2484 187.981 67.793L190.048 72.7706C190.029 72.5828 190.053 72.3932 190.119 72.2163C190.185 72.0395 190.291 71.8803 190.428 71.7512C190.566 71.622 190.731 71.5264 190.912 71.4719C191.093 71.4173 191.284 71.4052 191.47 71.4366C191.656 71.468 191.832 71.542 191.985 71.6528C192.138 71.7636 192.263 71.9082 192.35 72.0753C192.438 72.2424 192.486 72.4275 192.49 72.6162C192.495 72.8049 192.455 72.992 192.375 73.1629C193.27 71.8133 193.99 70.2798 194.015 68.6606C194.039 67.0414 193.236 65.3356 191.766 64.6562" fill="#2F2E41"/>
<path d="M115.61 165.517L112.815 169.911L114.443 164.19C111.005 160.603 106.247 157.979 106.247 157.979C106.247 157.979 100.387 167.61 101.964 173.534C103.541 179.458 107.614 180.589 111.958 179.433C116.302 178.276 119.274 175.27 117.696 169.346C117.345 168.027 116.583 166.733 115.61 165.517Z" fill="#FF1352"/>
<path d="M111.912 170.349L111.989 170.641C112.876 174.04 113.008 176.841 112.382 179.005C112.373 179.036 112.363 179.067 112.354 179.099L112.208 179.056L112.068 179.012C112.778 176.667 112.461 173.703 111.689 170.738C111.665 170.642 111.64 170.545 111.613 170.449C111.275 169.196 110.861 167.949 110.41 166.75C110.376 166.657 110.34 166.563 110.304 166.469C109.701 164.889 109.042 163.402 108.431 162.12C108.389 162.029 108.345 161.939 108.301 161.85C107.258 159.685 106.375 158.151 106.176 157.812C106.153 157.77 106.139 157.747 106.136 157.742L106.263 157.666L106.264 157.665L106.392 157.589C106.395 157.594 106.442 157.67 106.523 157.812C106.83 158.344 107.646 159.791 108.586 161.735C108.628 161.823 108.672 161.914 108.715 162.005C109.212 163.044 109.738 164.214 110.239 165.455C110.365 165.767 110.486 166.075 110.601 166.38C110.639 166.474 110.675 166.568 110.709 166.661C111.196 167.957 111.597 169.187 111.912 170.349Z" fill="white"/>
<path d="M108.586 161.736C108.493 161.774 108.398 161.813 108.301 161.85C108.038 161.95 107.769 162.037 107.497 162.109C106.337 162.42 105.122 162.466 103.941 162.245C103.901 162.337 103.861 162.43 103.819 162.525C105.064 162.769 106.348 162.726 107.574 162.398C107.864 162.321 108.151 162.228 108.432 162.12C108.527 162.084 108.622 162.045 108.715 162.005C109.484 161.677 110.199 161.235 110.835 160.693C110.752 160.63 110.67 160.568 110.591 160.507C109.987 161.013 109.311 161.427 108.586 161.736Z" fill="white"/>
<path d="M110.601 166.38C110.503 166.413 110.404 166.442 110.304 166.469C110.274 166.478 110.243 166.487 110.212 166.495C108.955 166.83 107.635 166.855 106.365 166.57C105.096 166.284 103.914 165.696 102.921 164.855C102.886 164.956 102.851 165.057 102.817 165.158C103.844 166.003 105.057 166.592 106.357 166.874C107.656 167.157 109.004 167.126 110.289 166.784C110.33 166.773 110.37 166.762 110.41 166.75C110.511 166.722 110.61 166.692 110.709 166.661C112.231 166.171 113.58 165.253 114.595 164.017C114.526 163.944 114.457 163.871 114.386 163.798C113.403 165.009 112.087 165.906 110.601 166.38Z" fill="white"/>
<path d="M111.912 170.349C111.813 170.385 111.714 170.417 111.614 170.449C111.506 170.482 111.399 170.514 111.29 170.542C109.6 170.99 107.81 170.879 106.189 170.224C104.567 169.57 103.201 168.408 102.295 166.912C102.262 167.046 102.227 167.179 102.196 167.313C103.161 168.789 104.567 169.923 106.213 170.555C107.859 171.187 109.663 171.283 111.367 170.832C111.476 170.803 111.584 170.772 111.689 170.738C111.791 170.708 111.891 170.675 111.99 170.641C113.991 169.937 115.65 168.499 116.631 166.617C116.572 166.518 116.509 166.422 116.446 166.324C115.516 168.205 113.889 169.648 111.912 170.349Z" fill="white"/>
<path d="M224.641 165.975L221.887 170.305L223.491 164.668C220.104 161.133 215.414 158.547 215.414 158.547C215.414 158.547 209.639 168.038 211.193 173.876C212.748 179.714 216.761 180.829 221.042 179.689C225.324 178.549 228.252 175.586 226.697 169.748C226.351 168.449 225.6 167.173 224.641 165.975Z" fill="#FF1352" fill-opacity="0.89"/>
<path d="M220.997 170.737L221.073 171.025C221.947 174.374 222.077 177.135 221.46 179.267C221.451 179.298 221.441 179.328 221.433 179.36L221.289 179.317L221.151 179.275C221.85 176.963 221.538 174.042 220.777 171.121C220.753 171.026 220.729 170.93 220.702 170.835C220.369 169.601 219.961 168.372 219.517 167.191C219.483 167.099 219.448 167.006 219.413 166.913C218.818 165.357 218.169 163.891 217.567 162.628C217.525 162.538 217.481 162.449 217.438 162.362C216.411 160.228 215.54 158.716 215.344 158.382C215.321 158.341 215.308 158.319 215.305 158.313L215.43 158.239L215.431 158.237L215.557 158.162C215.56 158.167 215.606 158.242 215.686 158.383C215.989 158.906 216.793 160.332 217.719 162.249C217.761 162.335 217.804 162.424 217.846 162.514C218.336 163.538 218.855 164.691 219.348 165.914C219.473 166.221 219.592 166.525 219.705 166.826C219.742 166.919 219.778 167.011 219.811 167.103C220.291 168.38 220.687 169.592 220.997 170.737Z" fill="white"/>
<path d="M217.719 162.249C217.627 162.287 217.534 162.326 217.438 162.362C217.178 162.46 216.914 162.545 216.646 162.617C215.502 162.923 214.305 162.968 213.142 162.75C213.102 162.842 213.062 162.933 213.021 163.026C214.248 163.267 215.514 163.225 216.721 162.902C217.008 162.825 217.29 162.734 217.567 162.628C217.661 162.592 217.755 162.554 217.846 162.514C218.604 162.191 219.308 161.755 219.935 161.221C219.853 161.159 219.773 161.098 219.694 161.038C219.099 161.537 218.434 161.945 217.719 162.249Z" fill="white"/>
<path d="M219.705 166.826C219.608 166.858 219.511 166.887 219.412 166.913C219.383 166.922 219.352 166.931 219.322 166.939C218.082 167.269 216.782 167.294 215.531 167.013C214.279 166.731 213.115 166.152 212.136 165.323C212.102 165.422 212.067 165.522 212.034 165.622C213.046 166.454 214.242 167.034 215.522 167.313C216.803 167.591 218.131 167.561 219.397 167.224C219.437 167.213 219.477 167.202 219.517 167.19C219.616 167.162 219.714 167.133 219.811 167.103C221.311 166.62 222.641 165.715 223.64 164.497C223.572 164.425 223.504 164.353 223.435 164.281C222.466 165.475 221.169 166.359 219.705 166.826Z" fill="white"/>
<path d="M220.997 170.737C220.899 170.772 220.801 170.804 220.702 170.835C220.597 170.868 220.491 170.899 220.384 170.928C218.718 171.369 216.954 171.259 215.356 170.614C213.758 169.969 212.412 168.824 211.52 167.35C211.486 167.483 211.452 167.614 211.422 167.745C212.373 169.2 213.758 170.318 215.38 170.94C217.003 171.563 218.78 171.658 220.46 171.213C220.566 171.184 220.673 171.154 220.777 171.121C220.877 171.091 220.975 171.059 221.073 171.025C223.046 170.331 224.68 168.914 225.647 167.06C225.589 166.962 225.527 166.867 225.465 166.771C224.548 168.624 222.945 170.046 220.997 170.737Z" fill="white"/>
<path d="M167.631 58.3831C167.631 48.0241 160.409 39.6265 151.5 39.6265C142.592 39.6265 135.37 48.0241 135.37 58.3831C135.37 67.7782 141.31 75.5598 149.062 76.9265V78.6942C149.062 79.0281 149.195 79.3483 149.431 79.5844C149.667 79.8205 149.987 79.9532 150.321 79.9532H152.68C153.014 79.9532 153.334 79.8205 153.57 79.5844C153.806 79.3483 153.939 79.0281 153.939 78.6942V76.9266C161.69 75.5598 167.631 67.7783 167.631 58.3831Z" fill="#FF1352"/>
<path d="M148.674 78.4386C149.179 77.9646 149.78 77.6054 150.437 77.3858C151.093 77.1662 151.79 77.0912 152.478 77.1661C153.172 77.2465 153.837 77.4869 154.422 77.8684C155.007 78.2498 155.496 78.7619 155.849 79.3643C156.202 79.9488 156.424 80.6032 156.5 81.282C156.575 81.9609 156.501 82.648 156.284 83.2956C155.86 84.5873 154.959 85.6622 154.035 86.631C153.066 87.6474 152.012 88.5848 151.1 89.6559C149.598 91.4327 148.548 93.5475 148.042 95.8189C147.536 98.0903 147.589 100.451 148.196 102.697C148.995 105.545 150.646 108.08 152.927 109.963C153.217 110.199 153.515 110.425 153.822 110.639C154.177 110.888 154.513 110.305 154.161 110.059C151.685 108.307 149.855 105.788 148.954 102.891C148.271 100.634 148.183 98.238 148.7 95.937C149.217 93.6359 150.32 91.5077 151.903 89.7593C152.864 88.698 153.94 87.7479 154.901 86.6862C155.822 85.6692 156.661 84.5217 157.021 83.178C157.203 82.4948 157.248 81.7824 157.154 81.0818C157.059 80.3811 156.827 79.706 156.471 79.0954C156.116 78.4712 155.636 77.9269 155.061 77.4968C154.487 77.0666 153.829 76.7599 153.13 76.5957C151.724 76.29 150.254 76.5445 149.033 77.3051C148.733 77.496 148.454 77.7165 148.199 77.9633C147.887 78.2639 148.362 78.7388 148.674 78.4386Z" fill="#3F3D56"/>
<path d="M105.472 50.5288C100.536 39.1825 88.6249 33.4255 78.8671 37.6702C69.1093 41.9148 65.2002 54.5537 70.1358 65.8999C74.6122 76.1904 84.8266 81.8831 93.9682 79.6868L94.8104 81.6229C94.9695 81.9886 95.2674 82.2762 95.6385 82.4223C96.0096 82.5684 96.4236 82.5611 96.7893 82.402L99.3728 81.2782C99.7385 81.1191 100.026 80.8212 100.172 80.4501C100.318 80.079 100.311 79.665 100.152 79.2993L99.3097 77.3633C107.149 72.1729 109.948 60.8193 105.472 50.5288Z" fill="#FF1352"/>
<path d="M94.2143 81.47C94.535 80.7312 95.0073 80.068 95.6007 79.5234C96.194 78.9788 96.8952 78.565 97.6587 78.3086C98.4084 78.0562 99.2042 77.9706 99.9905 78.058C100.777 78.1453 101.534 78.4035 102.21 78.8143C102.907 79.2269 103.507 79.7832 103.972 80.4462C104.436 81.1091 104.754 81.8635 104.904 82.659C105.249 84.5025 104.69 86.3803 104.055 88.0966C103.389 89.8958 102.559 91.6432 102.096 93.5116C101.452 96.1376 101.439 98.8789 102.058 101.511C102.677 104.143 103.911 106.591 105.659 108.654C107.86 111.205 110.759 113.056 113.999 113.98C114.396 114.092 114.798 114.188 115.202 114.27C115.625 114.355 115.805 113.707 115.381 113.621C112.01 112.928 108.938 111.203 106.59 108.687C104.101 105.996 102.597 102.541 102.324 98.8849C102.178 97.0327 102.348 95.1691 102.826 93.3738C103.337 91.4793 104.201 89.7056 104.853 87.8598C105.475 86.0984 105.916 84.207 105.525 82.343C105.166 80.7019 104.17 79.2704 102.756 78.3629C102.078 77.9161 101.319 77.6084 100.521 77.4578C99.7236 77.3071 98.9041 77.3165 98.1102 77.4853C96.4889 77.8525 95.0685 78.8237 94.1378 80.2011C93.9115 80.5446 93.72 80.9098 93.5662 81.2913C93.401 81.6906 94.051 81.8646 94.2143 81.47Z" fill="#3F3D56"/>
<path d="M243.343 187.575L246.966 187.575L248.69 173.601L243.343 173.601L243.343 187.575Z" fill="#FFB6B6"/>
<path d="M242.419 186.392L249.554 186.392H249.554C250.76 186.392 251.917 186.871 252.769 187.724C253.622 188.576 254.101 189.733 254.101 190.939V191.086L242.42 191.087L242.419 186.392Z" fill="#2F2E41"/>
<path d="M221.9 184.494L225.355 185.587L231.213 172.784L226.115 171.171L221.9 184.494Z" fill="#FFB6B6"/>
<path d="M221.376 183.088L228.178 185.24L228.178 185.24C229.328 185.603 230.286 186.409 230.842 187.479C231.398 188.549 231.506 189.796 231.142 190.946L231.098 191.087L219.96 187.564L221.376 183.088Z" fill="#2F2E41"/>
<path d="M230.058 123.755L228.047 129.425L227.99 160.036L222.289 180.994L229.288 182.947L237.018 163.185L239.498 145.828L242.766 163.286L242.316 184.037H249.659L250.213 152.06C250.369 143.08 248.797 134.153 245.584 125.766L230.058 123.755Z" fill="#0A0C3E"/>
<path d="M227.663 100.787H239.532L244.491 105.746L245.973 126.246L228.047 129.131L222.289 109.571L225.424 101.258L227.663 100.787Z" fill="#545796"/>
<path d="M223.395 109.767L205.121 102.891L204.646 100.049L216.17 90.2974L220.006 93.1745L213.053 100.787L225.425 101.258L223.395 109.767Z" fill="#545796"/>
<path d="M218.386 94.2861C220.018 94.2861 221.341 92.963 221.341 91.331C221.341 89.699 220.018 88.376 218.386 88.376C216.754 88.376 215.431 89.699 215.431 91.331C215.431 92.963 216.754 94.2861 218.386 94.2861Z" fill="#FFB6B6"/>
<path d="M225.239 95.0537L226.575 89.0325C226.809 87.9721 227.25 86.9682 227.872 86.0782C228.494 85.1882 229.286 84.4296 230.202 83.8457C231.117 83.2618 232.139 82.8641 233.208 82.6754C234.278 82.4866 235.374 82.5105 236.434 82.7456C237.494 82.9807 238.498 83.4225 239.387 84.0456C240.277 84.6688 241.035 85.4612 241.618 86.3774C242.201 87.2936 242.597 88.3157 242.785 89.3854C242.973 90.455 242.948 91.5511 242.712 92.6111L241.376 98.6324C241.312 98.9196 241.137 99.1698 240.889 99.3279C240.64 99.486 240.34 99.5392 240.052 99.4758L226.083 96.3779C225.796 96.3139 225.546 96.1385 225.387 95.8902C225.229 95.642 225.176 95.3412 225.239 95.0537Z" fill="#2F2E41"/>
<path d="M234.439 97.3232C237.653 96.3918 239.504 93.0312 238.573 89.817C237.641 86.6028 234.281 84.7522 231.066 85.6835C227.852 86.6149 226.002 89.9755 226.933 93.1897C227.864 96.4039 231.225 98.2545 234.439 97.3232Z" fill="#FFB6B6"/>
<path d="M224.559 89.091C224.937 87.3992 225.969 85.9262 227.431 84.995C228.893 84.0638 230.665 83.7505 232.357 84.1239L233.562 84.391C235.253 84.7681 236.726 85.801 237.658 87.2628C238.589 88.7247 238.902 90.4963 238.529 92.1889L238.502 92.3093L235.957 91.7449L235.628 89.1218L234.915 91.5139L233.6 91.2222L233.434 89.8987L233.075 91.1057L224.533 89.2114L224.559 89.091Z" fill="#2F2E41"/>
<path d="M230.677 98.107C230.594 97.9187 230.565 97.7107 230.594 97.5068C230.624 97.3029 230.71 97.1114 230.844 96.9545C232.658 94.8102 235.44 90.7214 233.681 87.4294L233.555 87.1929L240.44 88.7198L238.148 99.057L231.648 98.7735C231.582 98.7706 231.517 98.7621 231.453 98.7479C231.282 98.71 231.123 98.6322 230.988 98.5208C230.853 98.4094 230.746 98.2676 230.677 98.107Z" fill="#2F2E41"/>
<path d="M239.06 100.911L258.39 103.66L259.471 106.331L250.336 118.35L245.967 116.374L251.103 107.434L238.924 109.657L239.06 100.911Z" fill="#545796"/>
<path d="M268 61.945C268 49.5718 259.374 39.5413 248.733 39.5413C238.092 39.5413 229.466 49.5718 229.466 61.945C229.466 73.167 236.562 82.4616 245.821 84.0941V86.2054C245.821 86.6043 245.979 86.9868 246.261 87.2688C246.543 87.5509 246.926 87.7093 247.324 87.7093H250.142C250.541 87.7093 250.923 87.5509 251.205 87.2688C251.487 86.9868 251.646 86.6043 251.646 86.2054V84.0942C260.904 82.4616 268 73.167 268 61.945Z" fill="#FF1352"/>
<path d="M245.311 85.8539C245.922 85.2789 246.652 84.8437 247.448 84.5784C248.245 84.3131 249.089 84.2241 249.924 84.3174C250.743 84.414 251.53 84.6958 252.225 85.1415C252.919 85.5873 253.503 86.1852 253.933 86.8901C254.37 87.5857 254.651 88.3678 254.756 89.1824C254.862 89.997 254.79 90.8248 254.545 91.609C254.07 93.1482 253.027 94.4369 251.939 95.5921C250.779 96.8245 249.508 97.9513 248.398 99.2317C246.59 101.333 245.319 103.843 244.695 106.544C244.071 109.245 244.112 112.057 244.816 114.739C245.756 118.186 247.744 121.256 250.504 123.525C250.839 123.798 251.184 124.058 251.539 124.305C251.894 124.554 252.23 123.971 251.878 123.725C248.922 121.636 246.733 118.635 245.646 115.182C244.82 112.488 244.703 109.625 245.306 106.872C245.909 104.119 247.211 101.568 249.088 99.4643C250.228 98.1915 251.512 97.0575 252.665 95.7969C253.77 94.5897 254.784 93.2345 255.237 91.6393C255.466 90.8336 255.532 89.9906 255.433 89.1592C255.333 88.3277 255.07 87.5242 254.658 86.7951C254.247 86.0496 253.687 85.3969 253.013 84.8779C252.339 84.359 251.564 83.985 250.738 83.7794C249.06 83.3936 247.298 83.6859 245.834 84.5927C245.475 84.8197 245.141 85.0831 244.836 85.3786C244.524 85.6797 244.999 86.1547 245.311 85.8539Z" fill="#3F3D56"/>
<path d="M247.641 121.768C249.273 121.768 250.596 120.445 250.596 118.813C250.596 117.181 249.273 115.858 247.641 115.858C246.009 115.858 244.686 117.181 244.686 118.813C244.686 120.445 246.009 121.768 247.641 121.768Z" fill="#FFB6B6"/>
<path d="M216.848 92.1605C216.693 92.4056 216.317 92.3699 216.106 92.2167C215.813 92.004 215.908 91.5944 216.11 91.3523C216.751 90.5829 217.811 91.3952 217.953 92.1593C218.007 92.5318 217.949 92.9117 217.789 93.252C217.628 93.5922 217.371 93.8778 217.049 94.0733C216.318 94.5066 215.368 94.2893 214.739 93.7707C213.428 92.6888 213.785 90.5228 215.242 89.7402C216.171 89.2407 217.347 89.4599 218.262 89.8783C219.293 90.3493 220.18 91.0712 221.133 91.6729C223.225 92.9823 225.591 93.7903 228.047 94.0337C228.477 94.0776 228.474 93.4051 228.047 93.3616C226.686 93.2209 225.35 92.8993 224.074 92.4051C222.812 91.8935 221.614 91.2359 220.505 90.4458C219.382 89.6764 218.209 88.929 216.82 88.8019C216.26 88.7364 215.692 88.8205 215.174 89.0457C214.657 89.2709 214.208 89.6291 213.874 90.0839C213.577 90.4909 213.378 90.9612 213.292 91.4579C213.207 91.9546 213.238 92.4643 213.383 92.9471C213.558 93.4518 213.863 93.9013 214.268 94.2498C214.673 94.5983 215.162 94.8333 215.688 94.9309C216.193 95.0264 216.716 94.9618 217.183 94.746C217.65 94.5303 218.038 94.1741 218.293 93.7273C218.804 92.843 218.787 91.6552 218.015 90.922C217.794 90.697 217.517 90.5348 217.212 90.452C216.907 90.3691 216.586 90.3686 216.282 90.4505C216.001 90.5454 215.754 90.7201 215.57 90.9532C215.387 91.1863 215.276 91.4677 215.25 91.7631C215.176 92.9109 216.805 93.4849 217.428 92.4997C217.66 92.133 217.078 91.7954 216.848 92.1605Z" fill="#3F3D56"/>
<path d="M82.3823 128.281L81.4946 129.395L78.355 127.537L79.2426 126.424L82.3823 128.281Z" fill="#0A0C3E"/>
<path d="M85.6586 133.067L86.4428 134.237L83.1445 135.877L82.3604 134.707L85.6586 133.067Z" fill="#0A0C3E"/>
<path d="M89.0729 127.979L90.6398 128.035L90.4839 131.313L88.917 131.258L89.0729 127.979Z" fill="#FF1352"/>
<path d="M119.349 39.5623L118.461 40.676L115.321 38.8187L116.209 37.7048L119.349 39.5623Z" fill="#0A0C3E"/>
<path d="M122.624 44.3477L123.409 45.5178L120.11 47.1584L119.326 45.9883L122.624 44.3477Z" fill="#FF1352"/>
<path d="M126.039 39.2607L127.606 39.3161L127.45 42.5946L125.883 42.5393L126.039 39.2607Z" fill="#FF1352"/>
<path d="M206.499 51.2122L205.611 52.3259L202.472 50.4687L203.359 49.3547L206.499 51.2122Z" fill="#FF1352"/>
<path d="M209.775 55.9976L210.559 57.1677L207.261 58.8083L206.477 57.6382L209.775 55.9976Z" fill="#FF1352"/>
<path d="M213.19 50.9106L214.757 50.966L214.601 54.2445L213.034 54.1892L213.19 50.9106Z" fill="#0A0C3E"/>
<path d="M179.839 34.8575L178.951 35.9712L175.812 34.1139L176.699 33L179.839 34.8575Z" fill="#FF1352"/>
<path d="M183.115 39.6428L183.899 40.813L180.601 42.4536L179.816 41.2834L183.115 39.6428Z" fill="#0A0C3E"/>
<path d="M186.529 34.5559L188.096 34.6112L187.94 37.8898L186.373 37.8345L186.529 34.5559Z" fill="#FF1352"/>
<path d="M206.944 118.582L206.056 119.875L209.196 122.031L210.084 120.738L206.944 118.582Z" fill="#0A0C3E"/>
<path d="M210.062 128.197L210.846 129.555L214.144 127.651L213.36 126.293L210.062 128.197Z" fill="#FF1352"/>
<path d="M216.618 124.194L218.185 124.258L218.341 120.452L216.774 120.388L216.618 124.194Z" fill="#0A0C3E"/>
<path d="M140.342 177.251L143.056 176.831L141.195 155.145L135.146 156.265L140.342 177.251Z" fill="#FFB6B6"/>
<path d="M139.512 176.472L144.857 175.645C145.761 175.506 146.683 175.731 147.421 176.271C148.158 176.811 148.651 177.622 148.791 178.525L148.808 178.636L140.056 179.99L139.512 176.472Z" fill="#2F2E41"/>
<path d="M111.813 176.982L114.557 177.099L117.895 157.833L111.846 157.833L111.813 176.982Z" fill="#FFB6B6"/>
<path d="M111.151 176.057L116.556 176.287H116.556C117.469 176.326 118.33 176.726 118.948 177.399C119.566 178.073 119.892 178.964 119.853 179.878L119.848 179.99L111 179.613L111.151 176.057Z" fill="#2F2E41"/>
<path d="M117.216 114.211C117.087 114.175 116.954 114.15 116.82 114.138L118.531 100.135L124.335 87.8427C124.701 87.0694 124.759 86.1865 124.499 85.3719C124.238 84.5573 123.679 83.8716 122.933 83.4533C122.187 83.035 121.311 82.9151 120.48 83.1178C119.649 83.3204 118.926 83.8306 118.457 84.5454C116.935 86.8618 115.784 89.4012 115.046 92.0722L112.607 100.89L114.39 116.01C114.322 116.437 114.378 116.873 114.552 117.268C114.726 117.663 115.011 118 115.371 118.237C115.732 118.474 116.154 118.602 116.585 118.605C117.017 118.608 117.44 118.486 117.804 118.255C118.168 118.023 118.458 117.691 118.638 117.298C118.818 116.906 118.88 116.47 118.818 116.043C118.756 115.616 118.572 115.216 118.287 114.891C118.003 114.566 117.631 114.33 117.216 114.211Z" fill="#FFB6B6"/>
<path d="M120.74 101.32L113.407 92.9311L117.04 84.3859C117.515 83.2669 118.41 82.3781 119.532 81.9092C120.653 81.4404 121.914 81.4285 123.045 81.8763C124.175 82.324 125.086 83.1958 125.583 84.3057C126.079 85.4155 126.122 86.6755 125.703 87.8168L120.74 101.32Z" fill="#0A0C3E"/>
<path d="M132.931 74.5755C134.695 71.3479 133.509 67.3011 130.281 65.5367C127.054 63.7723 123.007 64.9585 121.243 68.1861C119.478 71.4138 120.664 75.4606 123.892 77.225C127.12 78.9893 131.166 77.8031 132.931 74.5755Z" fill="#FFB6B6"/>
<path d="M128.201 63.2891H123.898C121.078 63.2891 118.791 65.8614 118.791 69.0346L118.99 76.7313C122.038 77.1105 125.019 77.9077 127.849 79.1007L128.25 77.3858L129.042 79.6443C129.747 79.9856 130.445 80.3588 131.138 80.764C130.33 76.9663 129.997 73.1774 130.552 70.2342H132.009V68.6395L132.504 70.2342H135.146C135.146 69.3222 134.966 68.419 134.617 67.5764C134.268 66.7338 133.756 65.9682 133.112 65.3232C132.467 64.6783 131.701 64.1667 130.858 63.8177C130.016 63.4687 129.113 63.2891 128.201 63.2891Z" fill="#2F2E41"/>
<path d="M142.229 156.323L141.606 156.473L141.083 146.743L137.274 117.618L132.905 106.528L135.034 98.7992C135.034 98.7992 137.498 93.4223 131.337 89.2776L126.408 80.9882C123.004 78.762 120.203 80.2176 118.709 84.0015C117.408 87.2984 116.398 91.4694 116.999 95.7746C118.344 105.418 119.463 106.528 119.463 106.528C119.463 106.528 111.062 115.826 112.854 127.7L111.855 158.443L110.941 158.406L110.841 160.848L118.825 161.175L118.925 158.733L118.263 158.706L121.144 146.519L125.4 130.388L132.793 150.104L135.28 157.996L134.461 158.194L135.033 160.57L142.802 158.699L142.229 156.323Z" fill="#0A0C3E"/>
<path d="M147.716 101.117C147.626 101.216 147.544 101.324 147.473 101.438L135.71 93.6509L127.307 82.9656C126.778 82.2934 126.014 81.8467 125.169 81.7155C124.324 81.5844 123.461 81.7785 122.753 82.2589C122.046 82.7393 121.547 83.47 121.357 84.3039C121.167 85.1377 121.3 86.0125 121.73 86.7518C123.123 89.1478 124.88 91.312 126.94 93.1663L133.738 99.2877L148.063 104.448C148.413 104.7 148.829 104.845 149.261 104.866C149.692 104.886 150.12 104.782 150.493 104.565C150.866 104.349 151.169 104.029 151.365 103.644C151.56 103.259 151.641 102.826 151.596 102.397C151.551 101.967 151.383 101.56 151.113 101.224C150.842 100.888 150.48 100.637 150.07 100.502C149.66 100.366 149.22 100.352 148.802 100.462C148.385 100.571 148.007 100.798 147.716 101.117Z" fill="#FFB6B6"/>
<path d="M137.758 92.2036L126.976 95.016L120.954 87.9477C120.166 87.0222 119.77 85.8251 119.852 84.6119C119.934 83.3988 120.486 82.2656 121.392 81.4543C122.298 80.643 123.485 80.2178 124.699 80.2693C125.914 80.3209 127.061 80.8453 127.894 81.7304L137.758 92.2036Z" fill="#0A0C3E"/>
<path d="M221.33 180.218H76.3117C76.2409 180.218 76.1731 180.189 76.1231 180.139C76.073 180.089 76.0449 180.022 76.0449 179.951C76.0449 179.88 76.073 179.812 76.1231 179.762C76.1731 179.712 76.2409 179.684 76.3117 179.684H221.33C221.401 179.684 221.468 179.712 221.518 179.762C221.568 179.812 221.597 179.88 221.597 179.951C221.597 180.022 221.568 180.089 221.518 180.139C221.468 180.189 221.401 180.218 221.33 180.218Z" fill="#CACACA"/>
</g>
<defs>
<clipPath id="clip0_817_10697">
<rect width="200" height="158.087" fill="white" transform="translate(68 33)"/>
</clipPath>
</defs>
</svg>
