<svg width="15" height="15" viewBox="0 0 15 15" fill="none" xmlns="http://www.w3.org/2000/svg">
<path d="M7.5 1.40625C4.13467 1.40625 1.40625 4.13467 1.40625 7.5C1.40625 10.8653 4.13467 13.5938 7.5 13.5938C10.8653 13.5938 13.5938 10.8653 13.5938 7.5C13.5938 4.13467 10.8653 1.40625 7.5 1.40625ZM10.3125 8.4375H7.5C7.37568 8.4375 7.25645 8.38811 7.16854 8.30021C7.08064 8.2123 7.03125 8.09307 7.03125 7.96875V3.75C7.03125 3.62568 7.08064 3.50645 7.16854 3.41854C7.25645 3.33064 7.37568 3.28125 7.5 3.28125C7.62432 3.28125 7.74355 3.33064 7.83146 3.41854C7.91936 3.50645 7.96875 3.62568 7.96875 3.75V7.5H10.3125C10.4368 7.5 10.556 7.54939 10.644 7.63729C10.7319 7.7252 10.7812 7.84443 10.7812 7.96875C10.7812 8.09307 10.7319 8.2123 10.644 8.30021C10.556 8.38811 10.4368 8.4375 10.3125 8.4375Z" fill="white"/>
</svg>
