<svg width="16" height="15" viewBox="0 0 16 15" fill="none" xmlns="http://www.w3.org/2000/svg">
<path d="M8.35212 13.1546C8.28901 13.1546 8.22654 13.1424 8.16839 13.1186C8.11024 13.0948 8.05759 13.06 8.01355 13.0161C7.96951 12.9723 7.93496 12.9203 7.91196 12.8633C7.88896 12.8063 7.87796 12.7454 7.87962 12.6842V7.42916C7.87962 7.36838 7.85473 7.3101 7.81042 7.26712C7.76612 7.22414 7.70603 7.2 7.64337 7.2H2.22173C2.12235 7.20114 2.02504 7.17243 1.94314 7.11781C1.86124 7.06319 1.79877 6.98534 1.76429 6.89492C1.72502 6.78709 1.72872 6.66892 1.77467 6.5636C1.82063 6.45829 1.90551 6.37344 2.01265 6.32573L13.3526 1.27976C13.4403 1.24082 13.538 1.2288 13.6329 1.24531C13.7278 1.26182 13.8151 1.30607 13.8833 1.37212C13.9515 1.43817 13.9973 1.52288 14.0144 1.61486C14.0316 1.70685 14.0193 1.80173 13.9793 1.88677L8.7818 12.8868C8.74416 12.9667 8.68366 13.0344 8.60748 13.0819C8.53131 13.1293 8.44267 13.1546 8.35212 13.1546Z" fill="white"/>
</svg>
