<svg width="35" height="35" viewBox="0 0 35 35" fill="none" xmlns="http://www.w3.org/2000/svg">
<path d="M22.9688 13.125H25.7031C26.4283 13.125 27.1238 13.4131 27.6366 13.9259C28.1494 14.4387 28.4375 15.1342 28.4375 15.8594V28.9844C28.4375 29.7096 28.1494 30.4051 27.6366 30.9179C27.1238 31.4307 26.4283 31.7188 25.7031 31.7188H9.29688C8.57167 31.7188 7.87617 31.4307 7.36338 30.9179C6.85059 30.4051 6.5625 29.7096 6.5625 28.9844V15.8594C6.5625 15.1342 6.85059 14.4387 7.36338 13.9259C7.87617 13.4131 8.57167 13.125 9.29688 13.125H12.0312" stroke="white" stroke-width="2" stroke-linecap="round" stroke-linejoin="round"/>
<path d="M22.9688 8.75L17.5 3.28125L12.0312 8.75" stroke="white" stroke-width="2" stroke-linecap="round" stroke-linejoin="round"/>
<path d="M17.5 21.9434V3.28125" stroke="white" stroke-width="2" stroke-linecap="round" stroke-linejoin="round"/>
</svg>
