<svg width="24" height="24" viewBox="0 0 24 24" fill="none" xmlns="http://www.w3.org/2000/svg">
<path d="M15.5926 3.39681C14.6804 2.4398 13.4063 1.91278 12.0001 1.91278C10.5863 1.91278 9.30802 2.43661 8.40005 3.3877C7.48223 4.34927 7.03505 5.65611 7.14005 7.06726C7.34817 9.8513 9.52833 12.1161 12.0001 12.1161C14.4718 12.1161 16.6482 9.85176 16.8596 7.06817C16.966 5.66978 16.516 4.36567 15.5926 3.39681Z" fill="#FF1352"/>
<path d="M20.2498 22.3193H3.74978C3.53381 22.3221 3.31993 22.278 3.1237 22.1903C2.92747 22.1026 2.75383 21.9735 2.6154 21.8124C2.31072 21.4584 2.1879 20.9752 2.27884 20.4864C2.67447 18.3537 3.90916 16.5622 5.84978 15.3046C7.57384 14.1881 9.75775 13.5737 11.9998 13.5737C14.2418 13.5737 16.4257 14.1886 18.1498 15.3046C20.0904 16.5618 21.3251 18.3533 21.7207 20.4859C21.8117 20.9747 21.6888 21.458 21.3842 21.8119C21.2458 21.9731 21.0722 22.1023 20.8759 22.1901C20.6797 22.2779 20.4658 22.322 20.2498 22.3193V22.3193Z" fill="#FF1352"/>
</svg>
