<svg width="120" height="117" viewBox="0 0 120 117" fill="none" xmlns="http://www.w3.org/2000/svg">
<path d="M77.9628 14.7082C73.4018 9.92315 67.0315 7.28806 60.0003 7.28806C52.9315 7.28806 46.5401 9.9072 42.0002 14.6627C37.4112 19.4705 35.1752 26.0047 35.7002 33.0605C36.7409 46.9807 47.6417 58.3045 60.0003 58.3045C72.3589 58.3045 83.2409 46.983 84.298 33.065C84.83 26.073 82.58 19.5525 77.9628 14.7082Z" fill="#0A0C3E"/>
<path d="M101.25 109.321H18.7499C17.67 109.335 16.6006 109.114 15.6195 108.676C14.6383 108.237 13.7701 107.592 13.078 106.786C11.5546 105.016 10.9405 102.6 11.3952 100.156C13.3733 89.4929 19.5468 80.5354 29.2499 74.2472C37.8702 68.665 48.7897 65.5926 59.9999 65.5926C71.21 65.5926 82.1296 68.6672 90.7499 74.2472C100.453 80.5331 106.626 89.4906 108.605 100.154C109.059 102.598 108.445 105.014 106.922 106.784C106.23 107.59 105.362 108.236 104.381 108.675C103.399 109.114 102.33 109.334 101.25 109.321Z" fill="#0A0C3E"/>
</svg>
