<svg width="24" height="25" viewBox="0 0 24 25" fill="none" xmlns="http://www.w3.org/2000/svg">
<path d="M19.4325 5.08377V4.3844C19.4325 4.18549 19.3535 3.99472 19.2128 3.85407C19.0722 3.71342 18.8814 3.6344 18.6825 3.6344H5.31747C5.11856 3.6344 4.9278 3.71342 4.78714 3.85407C4.64649 3.99472 4.56747 4.18549 4.56747 4.3844V5.08377C4.49904 5.61674 4.11513 9.33721 6.29857 11.8661C7.46435 13.2161 9.12794 13.9685 11.25 14.1096V20.1344H7.49997C7.30106 20.1344 7.1103 20.2134 6.96964 20.3541C6.82899 20.4947 6.74997 20.6855 6.74997 20.8844C6.74997 21.0833 6.82899 21.2741 6.96964 21.4147C7.1103 21.5554 7.30106 21.6344 7.49997 21.6344H16.5C16.6989 21.6344 16.8897 21.5554 17.0303 21.4147C17.171 21.2741 17.25 21.0833 17.25 20.8844C17.25 20.6855 17.171 20.4947 17.0303 20.3541C16.8897 20.2134 16.6989 20.1344 16.5 20.1344H12.75V14.1096C14.872 13.9689 16.5356 13.2161 17.7014 11.8661C19.8848 9.33721 19.5 5.61674 19.4325 5.08377ZM6.05904 5.24362C6.06466 5.20748 6.06748 5.17097 6.06747 5.1344H17.9325C17.9325 5.17097 17.9353 5.20748 17.9409 5.24362C18.0219 5.95492 18.0219 6.6731 17.9409 7.3844H6.06185C5.9809 6.67315 5.97996 5.95507 6.05904 5.24362V5.24362Z" fill="#FF1352"/>
</svg>
