<svg width="15" height="15" viewBox="0 0 15 15" fill="none" xmlns="http://www.w3.org/2000/svg">
<path d="M0.9375 11.0156C0.9375 11.4507 1.11035 11.868 1.41803 12.1757C1.7257 12.4834 2.143 12.6562 2.57812 12.6562H12.4219C12.857 12.6562 13.2743 12.4834 13.582 12.1757C13.8896 11.868 14.0625 11.4507 14.0625 11.0156V6.50391H0.9375V11.0156ZM2.87109 8.78906C2.87109 8.55596 2.96369 8.33241 3.12852 8.16758C3.29335 8.00276 3.5169 7.91016 3.75 7.91016H5.15625C5.38935 7.91016 5.6129 8.00276 5.77773 8.16758C5.94256 8.33241 6.03516 8.55596 6.03516 8.78906V9.375C6.03516 9.6081 5.94256 9.83165 5.77773 9.99648C5.6129 10.1613 5.38935 10.2539 5.15625 10.2539H3.75C3.5169 10.2539 3.29335 10.1613 3.12852 9.99648C2.96369 9.83165 2.87109 9.6081 2.87109 9.375V8.78906Z" fill="white"/>
<path d="M12.4219 2.34375H2.57812C2.143 2.34375 1.7257 2.5166 1.41803 2.82428C1.11035 3.13195 0.9375 3.54925 0.9375 3.98438V4.74609H14.0625V3.98438C14.0625 3.54925 13.8896 3.13195 13.582 2.82428C13.2743 2.5166 12.857 2.34375 12.4219 2.34375Z" fill="white"/>
</svg>
