<svg width="26" height="26" viewBox="0 0 26 26" fill="none" xmlns="http://www.w3.org/2000/svg">
<path d="M16.8919 3.27945C15.9037 2.21254 14.5235 1.625 13.0001 1.625C11.4685 1.625 10.0837 2.20898 9.10005 3.2693C8.10575 4.34129 7.6213 5.7982 7.73505 7.37141C7.96052 10.4752 10.3224 13 13.0001 13C15.6778 13 18.0355 10.4757 18.2646 7.37242C18.3798 5.81344 17.8923 4.35957 16.8919 3.27945Z" fill="#0A0C3E"/>
<path d="M21.9373 24.375H4.0623C3.82833 24.378 3.59663 24.3289 3.38405 24.2311C3.17147 24.1334 2.98335 23.9894 2.8334 23.8098C2.50332 23.4152 2.37027 22.8764 2.46879 22.3316C2.89738 19.954 4.23496 17.9568 6.3373 16.5547C8.20504 15.31 10.5709 14.625 12.9998 14.625C15.4287 14.625 17.7946 15.3105 19.6623 16.5547C21.7646 17.9562 23.1022 19.9535 23.5308 22.3311C23.6293 22.8759 23.4963 23.4147 23.1662 23.8093C23.0163 23.989 22.8282 24.133 22.6156 24.2309C22.403 24.3287 22.1713 24.378 21.9373 24.375V24.375Z" fill="#0A0C3E"/>
</svg>
