<svg width="24" height="24" viewBox="0 0 24 24" fill="none" xmlns="http://www.w3.org/2000/svg">
<path d="M15.5926 2.94167C14.6804 1.98466 13.4063 1.45764 12.0001 1.45764C10.5863 1.45764 9.30802 1.98147 8.40005 2.93256C7.48223 3.89413 7.03505 5.20097 7.14005 6.61213C7.34817 9.39617 9.52833 11.6609 12.0001 11.6609C14.4718 11.6609 16.6482 9.39662 16.8596 6.61304C16.966 5.21464 16.516 3.91053 15.5926 2.94167Z" fill="#FF1352" fill-opacity="0.5"/>
<path d="M20.2498 21.8642H3.74978C3.53381 21.8669 3.31993 21.8228 3.1237 21.7351C2.92747 21.6474 2.75383 21.5183 2.6154 21.3572C2.31072 21.0033 2.1879 20.52 2.27884 20.0313C2.67447 17.8986 3.90916 16.1071 5.84978 14.8494C7.57384 13.733 9.75775 13.1185 11.9998 13.1185C14.2418 13.1185 16.4257 13.7335 18.1498 14.8494C20.0904 16.1066 21.3251 17.8981 21.7207 20.0308C21.8117 20.5196 21.6888 21.0028 21.3842 21.3568C21.2458 21.518 21.0722 21.6472 20.8759 21.7349C20.6797 21.8227 20.4658 21.8669 20.2498 21.8642V21.8642Z" fill="#FF1352" fill-opacity="0.5"/>
</svg>
